# This file uses centimeters as units for non-parametric coordinates.

mtllib floortile deformed 2.mtl
g default
v -3.001575 -0.230277 2.775120
v 2.998425 -0.419916 2.901576
v -3.001575 0.530542 2.901575
v 2.998425 0.499893 2.901575
v -3.001575 0.531146 -3.098424
v 2.998425 0.493539 -3.098424
v -3.001575 -0.356799 -3.098424
v 2.998425 -0.442874 -3.098424
v 2.998425 0.549526 -2.098424
v -3.001575 0.592660 -2.098424
v -3.001575 -0.428015 -2.098424
v 2.998425 -0.421421 -2.098424
v 2.998425 0.592660 -1.098424
v -3.001575 0.624643 -1.098424
v -3.001575 -0.428015 -1.098424
v 2.998425 -0.500000 -1.098424
v 2.998425 0.617681 -0.098424
v -3.001575 0.592660 -0.098424
v -3.001575 -0.453363 -0.098424
v 2.998425 -0.500000 -0.098424
v 2.998425 0.592660 0.901576
v -3.001575 0.624643 0.901576
v -3.001575 -0.368275 0.901576
v 2.998425 -0.542246 0.901576
v 2.998425 0.537045 1.901576
v -3.001575 0.560708 1.901576
v -3.001575 -0.388318 1.901576
v 2.998425 -0.594302 1.901576
v 1.998425 0.563713 2.901575
v 1.998425 0.592660 1.901576
v 1.998425 0.652279 0.901576
v 1.998425 0.730828 -0.098424
v 1.998425 0.687169 -1.098424
v 1.998425 0.647996 -2.098424
v 1.998425 0.590338 -3.098424
v 1.998425 -0.500000 -3.098424
v 1.998425 -0.500000 -2.098424
v 1.998425 -0.423598 -1.098424
v 1.998425 -0.389519 -0.098424
v 1.998425 -0.379800 0.901576
v 1.998425 -0.245493 1.901576
v 1.998425 -0.323716 2.901576
v 0.998425 0.592660 2.901575
v 0.998425 0.669882 1.901576
v 0.998425 0.787959 0.901576
v 0.998425 0.780124 -0.098424
v 0.998425 0.699314 -1.098424
v 0.998425 0.628103 -2.098424
v 0.998425 0.574271 -3.098424
v 0.998425 -0.429925 -3.098424
v 0.998425 -0.500000 -2.098424
v 0.998425 -0.500000 -1.098424
v 0.998425 -0.389519 -0.098424
v 0.998425 -0.401479 0.901576
v 0.998425 -0.389519 1.901576
v 0.998425 -0.425955 2.901576
v -0.001575 0.623135 2.901575
v -0.001575 0.718549 1.901576
v -0.001575 0.790984 0.901576
v -0.001575 0.725796 -0.098424
v -0.001575 0.762855 -1.098424
v -0.001575 0.766651 -2.098424
v -0.001575 0.600875 -3.098424
v -0.001575 -0.500000 -3.098424
v -0.001575 -0.464645 -2.098424
v -0.001575 -0.464645 -1.098424
v -0.001575 -0.389519 -0.098424
v -0.001575 -0.389519 0.901576
v -0.001575 -0.389519 1.901576
v -0.001575 -0.424927 2.901576
v -1.001575 0.592660 2.901575
v -1.001575 0.697102 1.901576
v -1.001575 0.769537 0.901576
v -1.001575 0.834205 -0.098424
v -1.001575 0.790307 -1.098424
v -1.001575 0.747603 -2.098424
v -1.001575 0.588432 -3.098424
v -1.001575 -0.429925 -3.098424
v -1.001575 -0.500000 -2.098424
v -1.001575 -0.500000 -1.098424
v -1.001575 -0.389519 -0.098424
v -1.001575 -0.389519 0.901576
v -1.001575 -0.389519 1.901576
v -1.001575 -0.340330 2.901576
v -2.001575 0.572107 2.901575
v -2.001575 0.631670 1.901576
v -2.001575 0.609586 0.901576
v -2.001575 0.681227 -0.098424
v -2.001575 0.689380 -1.098424
v -2.001575 0.653230 -2.098424
v -2.001575 0.596491 -3.098424
v -2.001575 -0.500000 -3.098424
v -2.001575 -0.500000 -2.098424
v -2.001575 -0.428015 -1.098424
v -2.001575 -0.500000 -0.098424
v -2.001575 -0.361631 0.901576
v -2.001575 -0.156473 1.901576
v -2.001575 -0.219769 2.901576
vt 0.344292 0.122006
vt 0.648304 0.122006
vt 0.395309 0.345830
vt 0.648304 0.185117
vt 0.008828 0.605830
vt 0.983121 0.933642
vt 0.029386 0.238481
vt 0.297548 0.692877
vt 0.029386 0.563421
vt 0.335841 0.563421
vt 0.952315 0.122006
vt 0.952315 0.185117
vt 0.040280 0.122006
vt 0.040280 0.185117
vt 0.983121 0.345830
vt 0.297548 0.605830
vt 0.344292 0.185117
vt 0.395309 0.933642
vt 0.648304 0.122006
vt 0.648304 0.185117
vt 0.344292 0.122006
vt 0.344292 0.185117
vt 0.008828 0.692877
vt 0.335841 0.238481
vt 0.983121 0.835674
vt 0.901647 0.185117
vt 0.090949 0.185117
vt 0.395309 0.835674
vt 0.090949 0.122006
vt 0.029386 0.292638
vt 0.335841 0.292638
vt 0.901647 0.122006
vt 0.983121 0.737705
vt 0.850978 0.185117
vt 0.141617 0.185117
vt 0.395309 0.737705
vt 0.141617 0.122006
vt 0.029386 0.346795
vt 0.335841 0.346795
vt 0.850978 0.122006
vt 0.983121 0.639736
vt 0.800310 0.185117
vt 0.192286 0.185117
vt 0.395309 0.639736
vt 0.192286 0.122006
vt 0.029386 0.400951
vt 0.335841 0.400951
vt 0.800310 0.122006
vt 0.983121 0.541768
vt 0.749641 0.185117
vt 0.242955 0.185117
vt 0.395309 0.541768
vt 0.242955 0.122006
vt 0.029386 0.455108
vt 0.335841 0.455108
vt 0.749641 0.122006
vt 0.983121 0.443799
vt 0.698972 0.185117
vt 0.293623 0.185117
vt 0.395309 0.443799
vt 0.293623 0.122006
vt 0.029386 0.509265
vt 0.335841 0.509265
vt 0.698972 0.122006
vt 0.885152 0.345830
vt 0.597635 0.185117
vt 0.885152 0.443799
vt 0.885152 0.541768
vt 0.885152 0.639736
vt 0.885152 0.737705
vt 0.885152 0.835674
vt 0.249428 0.605830
vt 0.885152 0.933642
vt 0.284765 0.238481
vt 0.249428 0.692877
vt 0.284765 0.292638
vt 0.284765 0.346795
vt 0.284765 0.400951
vt 0.284765 0.455108
vt 0.284765 0.509265
vt 0.597635 0.122006
vt 0.284765 0.563421
vt 0.787184 0.345830
vt 0.546966 0.185117
vt 0.787184 0.443799
vt 0.787184 0.541768
vt 0.787184 0.639736
vt 0.787184 0.737705
vt 0.787184 0.835674
vt 0.201308 0.605830
vt 0.787184 0.933642
vt 0.233689 0.238481
vt 0.201308 0.692877
vt 0.233689 0.292638
vt 0.233689 0.346795
vt 0.233689 0.400951
vt 0.233689 0.455108
vt 0.233689 0.509265
vt 0.546966 0.122006
vt 0.233689 0.563421
vt 0.689215 0.345830
vt 0.496298 0.185117
vt 0.689215 0.443799
vt 0.689215 0.541768
vt 0.689215 0.639736
vt 0.689215 0.737705
vt 0.689215 0.835674
vt 0.153188 0.605830
vt 0.689215 0.933642
vt 0.182613 0.238481
vt 0.153188 0.692877
vt 0.182613 0.292638
vt 0.182613 0.346795
vt 0.182613 0.400951
vt 0.182613 0.455108
vt 0.182613 0.509265
vt 0.496298 0.122006
vt 0.182613 0.563421
vt 0.591246 0.345830
vt 0.445629 0.185117
vt 0.591246 0.443799
vt 0.591246 0.541768
vt 0.591246 0.639736
vt 0.591246 0.737705
vt 0.591246 0.835674
vt 0.105068 0.605830
vt 0.591246 0.933642
vt 0.131538 0.238481
vt 0.105068 0.692877
vt 0.131538 0.292638
vt 0.131538 0.346795
vt 0.131538 0.400951
vt 0.131538 0.455108
vt 0.131538 0.509265
vt 0.445629 0.122006
vt 0.131538 0.563421
vt 0.493278 0.345830
vt 0.394961 0.185117
vt 0.493278 0.443799
vt 0.493278 0.541768
vt 0.493278 0.639736
vt 0.493278 0.737705
vt 0.493278 0.835674
vt 0.056948 0.605830
vt 0.493278 0.933642
vt 0.080462 0.238481
vt 0.056948 0.692877
vt 0.080462 0.292638
vt 0.080462 0.346795
vt 0.080462 0.400951
vt 0.080462 0.455108
vt 0.080462 0.509265
vt 0.394961 0.122006
vt 0.080462 0.563421
vn -0.060793 -0.081023 0.994857
vn -0.027900 -0.037184 0.998919
vn -0.028312 -0.037733 0.998887
vn -0.060793 -0.081023 0.994856
vn -0.056118 0.997421 0.044748
vn -0.049475 0.996773 0.063207
vn -0.059824 0.997276 0.043148
vn -0.042078 0.998573 0.032873
vn 0.000000 0.000000 -1.000000
vn -0.000000 0.000000 -1.000000
vn -0.000000 0.000000 -1.000000
vn 0.000000 0.000000 -1.000000
vn 0.117510 -0.990473 0.071800
vn -0.019787 -0.998044 0.059305
vn -0.040620 -0.998984 0.019539
vn 0.117019 -0.991862 0.050158
vn 1.000000 0.000000 0.000000
vn 1.000000 0.000000 0.000000
vn 1.000000 0.000000 0.000000
vn 1.000000 0.000000 0.000000
vn -1.000000 0.000000 0.000000
vn -1.000000 0.000000 0.000000
vn -1.000000 0.000000 0.000000
vn -1.000000 0.000000 0.000000
vn -0.062615 0.996955 -0.046477
vn -0.066302 0.995997 -0.059946
vn -0.052810 0.995140 -0.083109
vn -0.062724 0.996291 -0.058907
vn -1.000000 0.000000 0.000000
vn -1.000000 -0.000000 0.000000
vn -1.000000 -0.000000 0.000000
vn -1.000000 0.000000 0.000000
vn -0.106909 -0.993639 -0.035382
vn -0.036231 -0.998721 -0.035278
vn -0.036112 -0.999348 0.000305
vn -0.071666 -0.997429 0.000134
vn 1.000000 0.000000 0.000000
vn 1.000000 0.000000 0.000000
vn 1.000000 0.000000 0.000000
vn 1.000000 0.000000 0.000000
vn -0.069483 0.997559 -0.006982
vn -0.090609 0.995728 -0.017758
vn -1.000000 -0.000000 0.000000
vn -1.000000 -0.000000 0.000000
vn -0.019027 -0.999763 0.010611
vn -0.029642 -0.999541 -0.006334
vn 1.000000 0.000000 0.000000
vn 1.000000 0.000000 0.000000
vn -0.056602 0.998198 0.019913
vn -0.098847 0.994848 0.022517
vn -1.000000 0.000000 0.000000
vn -1.000000 0.000000 0.000000
vn 0.004236 -0.999278 0.037765
vn -0.021640 -0.999267 0.031578
vn 1.000000 0.000000 0.000000
vn 1.000000 0.000000 0.000000
vn -0.032331 0.999270 0.020362
vn -0.082995 0.995992 0.033332
vn -1.000000 0.000000 0.000000
vn -1.000000 0.000000 0.000000
vn 0.002395 -0.995605 0.093619
vn 0.049298 -0.993614 0.101492
vn 1.000000 0.000000 0.000000
vn 1.000000 0.000000 0.000000
vn 0.056262 0.997492 0.042950
vn 0.059579 0.997679 0.032972
vn 0.058508 0.997264 0.045189
vn 0.068900 0.995942 0.057896
vn 0.085308 0.994656 0.058162
vn 0.071686 0.995938 0.054483
vn 0.078077 0.996944 -0.002399
vn 0.094675 0.995470 0.008683
vn 0.056639 0.997236 -0.048091
vn 0.099583 0.994321 -0.037539
vn 0.042958 0.997718 -0.052098
vn 0.096495 0.994140 -0.048725
vn 0.039817 0.997628 -0.056151
vn 0.097017 0.993680 -0.056463
vn -0.000000 0.000000 -1.000000
vn -0.000000 0.000000 -1.000000
vn -0.000000 0.000000 -1.000000
vn -0.000000 0.000000 -1.000000
vn 0.018039 -0.999832 0.003204
vn 0.016404 -0.999792 -0.012153
vn 0.067693 -0.997649 0.010701
vn 0.034497 -0.999393 0.004824
vn -0.004049 -0.999492 0.031627
vn -0.046215 -0.998900 0.007984
vn -0.045150 -0.998819 0.017957
vn -0.114231 -0.993454 0.000361
vn -0.074895 -0.996897 0.024234
vn -0.192639 -0.981192 0.012333
vn -0.066700 -0.997434 0.025996
vn -0.232492 -0.971634 0.043295
vn -0.049599 -0.998758 -0.004627
vn -0.216954 -0.975055 0.046881
vn -0.000000 0.000000 1.000000
vn -0.000000 0.000000 1.000000
vn -0.000000 0.000000 1.000000
vn -0.000000 0.000000 1.000000
vn 0.046176 0.996517 0.069435
vn 0.056059 0.995176 0.080514
vn 0.049520 0.997735 0.045530
vn 0.025539 0.999448 -0.021276
vn 0.033152 0.998516 -0.043200
vn 0.040283 0.997167 -0.063533
vn 0.032162 0.996077 -0.082445
vn -0.000000 0.000000 -1.000000
vn -0.000000 0.000000 -1.000000
vn -0.003716 -0.999987 -0.003544
vn -0.008835 -0.999618 -0.026189
vn 0.005806 -0.998697 0.050701
vn 0.006341 -0.999201 0.039464
vn 0.020424 -0.999629 0.017996
vn 0.049880 -0.998749 -0.003554
vn 0.061056 -0.997052 -0.046476
vn 0.000000 0.000000 1.000000
vn 0.000000 0.000000 1.000000
vn 0.006775 0.995669 0.092720
vn 0.004474 0.996098 0.088137
vn 0.005553 0.999450 0.032709
vn 0.022564 0.999625 -0.015522
vn 0.044415 0.998821 -0.019588
vn 0.042722 0.995808 -0.080882
vn 0.033128 0.990319 -0.134802
vn 0.000000 0.000000 -1.000000
vn 0.000000 0.000000 -1.000000
vn 0.000000 -0.999962 -0.008676
vn -0.000000 -0.999849 -0.017357
vn 0.000000 -0.998923 0.046391
vn -0.001493 -0.998992 0.044862
vn -0.002990 -0.999996 0.000000
vn -0.012197 -0.999909 -0.005762
vn -0.021379 -0.999666 -0.014532
vn 0.000000 0.000000 1.000000
vn 0.000000 0.000000 1.000000
vn -0.034329 0.995303 0.090523
vn -0.050638 0.996290 0.069590
vn -0.061684 0.997239 0.041351
vn -0.042873 0.999013 0.011607
vn -0.038091 0.999074 -0.020007
vn -0.037953 0.995914 -0.081950
vn -0.029176 0.990561 -0.133932
vn 0.000000 0.000000 -1.000000
vn 0.000000 0.000000 -1.000000
vn 0.004268 -0.999983 -0.004096
vn 0.008835 -0.999618 -0.026189
vn 0.009047 -0.999275 0.036972
vn 0.019532 -0.998782 0.045304
vn -0.022267 -0.998832 0.042891
vn -0.086875 -0.995891 0.025557
vn -0.109110 -0.994030 -0.000103
vn -0.000000 0.000000 1.000000
vn -0.000000 0.000000 1.000000
s 1
g floortile1
usemtl lambert2SG
f 1/21/1 98/153/2 85/138/3 3/17/4
s 2
f 3/3/5 85/137/6 86/139/7 26/60/8
s 3
f 5/5/9 91/144/10 92/147/11 7/23/12
s 4
f 27/62/13 97/152/14 98/154/15 1/9/16
s 5
f 2/19/17 28/64/18 25/58/19 4/4/20
s 6
f 27/61/21 1/1/22 3/22/23 26/59/24
s 2
f 10/28/25 90/143/26 91/145/27 5/18/28
s 6
f 7/13/29 11/29/30 10/27/31 5/14/32
s 4
f 7/7/33 92/146/34 93/148/35 11/30/36
s 5
f 9/26/37 12/32/38 8/11/39 6/12/40
s 2
f 14/36/41 89/142/42 90/143/26 10/28/25
s 6
f 11/29/30 15/37/43 14/35/44 10/27/31
s 4
f 11/30/36 93/148/35 94/149/45 15/38/46
s 5
f 13/34/47 16/40/48 12/32/38 9/26/37
s 2
f 18/44/49 88/141/50 89/142/42 14/36/41
s 6
f 15/37/43 19/45/51 18/43/52 14/35/44
s 4
f 15/38/46 94/149/45 95/150/53 19/46/54
s 5
f 17/42/55 20/48/56 16/40/48 13/34/47
s 2
f 22/52/57 87/140/58 88/141/50 18/44/49
s 6
f 19/45/51 23/53/59 22/51/60 18/43/52
s 4
f 19/46/54 95/150/53 96/151/61 23/54/62
s 5
f 21/50/63 24/56/64 20/48/56 17/42/55
s 2
f 26/60/8 86/139/7 87/140/58 22/52/57
s 6
f 23/53/59 27/61/21 26/59/24 22/51/60
s 4
f 23/54/62 96/151/61 97/152/14 27/62/13
s 5
f 25/58/19 28/64/18 24/56/64 21/50/63
s 2
f 29/65/65 4/15/66 25/57/67 30/67/68
f 31/68/69 30/67/68 25/57/67 21/49/70
f 32/69/71 31/68/69 21/49/70 17/41/72
f 33/70/73 32/69/71 17/41/72 13/33/74
f 34/71/75 33/70/73 13/33/74 9/25/76
f 35/73/77 34/71/75 9/25/76 6/6/78
s 3
f 36/75/79 35/72/80 6/16/81 8/8/82
s 4
f 37/76/83 36/74/84 8/24/85 12/31/86
f 38/77/87 37/76/83 12/31/86 16/39/88
f 39/78/89 38/77/87 16/39/88 20/47/90
f 40/79/91 39/78/89 20/47/90 24/55/92
f 41/80/93 40/79/91 24/55/92 28/63/94
f 42/82/95 41/80/93 28/63/94 2/10/96
s 1
f 29/66/97 42/81/98 2/2/99 4/20/100
s 2
f 43/83/101 29/65/65 30/67/68 44/85/102
f 45/86/103 44/85/102 30/67/68 31/68/69
f 46/87/104 45/86/103 31/68/69 32/69/71
f 47/88/105 46/87/104 32/69/71 33/70/73
f 48/89/106 47/88/105 33/70/73 34/71/75
f 49/91/107 48/89/106 34/71/75 35/73/77
s 3
f 50/93/108 49/90/109 35/72/80 36/75/79
s 4
f 51/94/110 50/92/111 36/74/84 37/76/83
f 52/95/112 51/94/110 37/76/83 38/77/87
f 53/96/113 52/95/112 38/77/87 39/78/89
f 54/97/114 53/96/113 39/78/89 40/79/91
f 55/98/115 54/97/114 40/79/91 41/80/93
f 56/100/116 55/98/115 41/80/93 42/82/95
s 1
f 43/84/117 56/99/118 42/81/98 29/66/97
s 2
f 57/101/119 43/83/101 44/85/102 58/103/120
f 59/104/121 58/103/120 44/85/102 45/86/103
f 60/105/122 59/104/121 45/86/103 46/87/104
f 61/106/123 60/105/122 46/87/104 47/88/105
f 62/107/124 61/106/123 47/88/105 48/89/106
f 63/109/125 62/107/124 48/89/106 49/91/107
s 3
f 64/111/126 63/108/127 49/90/109 50/93/108
s 4
f 65/112/128 64/110/129 50/92/111 51/94/110
f 66/113/130 65/112/128 51/94/110 52/95/112
f 67/114/131 66/113/130 52/95/112 53/96/113
f 68/115/132 67/114/131 53/96/113 54/97/114
f 69/116/133 68/115/132 54/97/114 55/98/115
f 70/118/134 69/116/133 55/98/115 56/100/116
s 1
f 57/102/135 70/117/136 56/99/118 43/84/117
s 2
f 71/119/137 57/101/119 58/103/120 72/121/138
f 73/122/139 72/121/138 58/103/120 59/104/121
f 74/123/140 73/122/139 59/104/121 60/105/122
f 75/124/141 74/123/140 60/105/122 61/106/123
f 76/125/142 75/124/141 61/106/123 62/107/124
f 77/127/143 76/125/142 62/107/124 63/109/125
s 3
f 78/129/144 77/126/145 63/108/127 64/111/126
s 4
f 79/130/146 78/128/147 64/110/129 65/112/128
f 80/131/148 79/130/146 65/112/128 66/113/130
f 81/132/149 80/131/148 66/113/130 67/114/131
f 82/133/150 81/132/149 67/114/131 68/115/132
f 83/134/151 82/133/150 68/115/132 69/116/133
f 84/136/152 83/134/151 69/116/133 70/118/134
s 1
f 71/120/153 84/135/154 70/117/136 57/102/135
s 2
f 85/137/6 71/119/137 72/121/138 86/139/7
f 87/140/58 86/139/7 72/121/138 73/122/139
f 88/141/50 87/140/58 73/122/139 74/123/140
f 89/142/42 88/141/50 74/123/140 75/124/141
f 90/143/26 89/142/42 75/124/141 76/125/142
f 91/145/27 90/143/26 76/125/142 77/127/143
s 3
f 92/147/11 91/144/10 77/126/145 78/129/144
s 4
f 93/148/35 92/146/34 78/128/147 79/130/146
f 94/149/45 93/148/35 79/130/146 80/131/148
f 95/150/53 94/149/45 80/131/148 81/132/149
f 96/151/61 95/150/53 81/132/149 82/133/150
f 97/152/14 96/151/61 82/133/150 83/134/151
f 98/154/15 97/152/14 83/134/151 84/136/152
s 1
f 85/138/3 98/153/2 84/135/154 71/120/153
