# This file uses centimeters as units for non-parametric coordinates.

mtllib book.mtl
g default
v 0.309826 0.089433 0.314094
v 0.322052 0.095768 0.320473
v 0.282404 0.072953 0.343130
v 0.290044 0.747872 -0.327101
v 0.322052 0.732328 -0.311665
v 0.290044 0.732862 -0.324866
v 0.282404 0.085626 0.355892
v 0.322052 0.108442 0.333235
v 0.282404 0.100638 0.353658
v 0.290044 0.758207 -0.299344
v 0.322052 0.745002 -0.298903
v 0.290044 0.760546 -0.314339
v -0.292181 0.085626 0.355892
v -0.292181 0.100638 0.353658
v -0.331829 0.108442 0.333235
v -0.331829 0.745002 -0.298903
v -0.271351 0.758207 -0.299344
v -0.271351 0.760546 -0.314339
v -0.292181 0.072953 0.343130
v -0.331829 0.095768 0.320473
v -0.319603 0.089433 0.314094
v -0.271351 0.732862 -0.324866
v -0.331829 0.732328 -0.311665
v -0.271351 0.747872 -0.327101
vt 0.378317 0.995326
vt 0.375000 0.995326
vt 0.375000 0.754674
vt 0.378317 0.000000
vt 0.378317 0.062489
vt 0.625000 0.995326
vt 0.621683 0.995326
vt 0.625000 0.754674
vt 0.629674 0.062489
vt 0.375000 0.254674
vt 0.375000 0.495326
vt 0.378317 0.187504
vt 0.621683 0.187504
vt 0.625000 0.254674
vt 0.375000 0.562496
vt 0.375000 0.687511
vt 0.378317 0.495326
vt 0.621683 0.495326
vt 0.625000 0.562496
vt 0.625000 0.687511
vt 0.378317 0.687511
vt 0.621683 0.687511
vt 0.621683 0.754674
vt 0.621683 0.062489
vt 0.378317 0.254674
vt 0.621683 0.254674
vt 0.378317 0.562496
vt 0.621683 0.562496
vt 0.378317 0.754674
vt 0.870326 0.062489
vt 0.870326 0.187504
vt 0.129674 0.062489
vt 0.370326 0.062489
vt 0.370326 0.187504
vt 0.129674 0.187504
vt 0.621680 0.000000
vt 0.629674 0.187504
vt 0.625000 0.495326
vn 0.000000 -0.869679 -0.493618
vn 0.000000 -0.869679 -0.493618
vn 0.000000 -0.869679 -0.493618
vn 0.000000 -0.869679 -0.493618
vn 0.377341 -0.649604 -0.660021
vn 0.377341 -0.649604 -0.660021
vn 0.377341 -0.649604 -0.660022
vn 0.377341 -0.649604 -0.660021
vn 0.629888 -0.551110 0.547283
vn 0.629888 -0.551110 0.547283
vn 0.629888 -0.551110 0.547283
vn 0.629888 -0.551110 0.547283
vn 0.000000 -0.147322 -0.989089
vn 0.000000 -0.147322 -0.989089
vn 0.000000 -0.147322 -0.989089
vn 0.000000 -0.147322 -0.989089
vn 0.564798 0.585556 -0.581488
vn 0.564798 0.585556 -0.581488
vn 0.564798 0.585556 -0.581488
vn 0.564798 0.585556 -0.581488
vn 0.000000 0.147236 0.989101
vn 0.000000 0.147236 0.989101
vn 0.000000 0.147236 0.989101
vn 0.000000 0.147236 0.989101
vn 0.243564 0.682693 0.688917
vn 0.243564 0.682693 0.688917
vn 0.243564 0.682693 0.688917
vn 0.243564 0.682693 0.688917
vn 0.000000 0.988052 0.154124
vn 0.000000 0.988052 0.154124
vn 0.000000 0.988052 0.154124
vn 0.000000 0.988052 0.154124
vn -0.629888 -0.551110 0.547283
vn -0.629888 -0.551110 0.547283
vn -0.629888 -0.551110 0.547283
vn -0.629888 -0.551110 0.547283
vn -0.176584 0.694995 0.696994
vn -0.176584 0.694995 0.696994
vn -0.176584 0.694995 0.696994
vn -0.176584 0.694995 0.696994
vn -0.340572 0.667149 -0.662513
vn -0.340572 0.667149 -0.662513
vn -0.340572 0.667149 -0.662513
vn -0.340572 0.667149 -0.662513
vn -0.240883 -0.679302 -0.693198
vn -0.240883 -0.679302 -0.693198
vn -0.240883 -0.679302 -0.693198
vn -0.240883 -0.679302 -0.693198
vn 1.000000 -0.000000 0.000000
vn 1.000000 -0.000000 0.000000
vn 1.000000 -0.000000 0.000000
vn 1.000000 -0.000000 0.000000
vn 0.000000 0.704638 0.709567
vn 0.000000 0.704638 0.709567
vn 0.000000 0.704638 0.709567
vn 0.000000 0.704638 0.709567
vn -1.000000 -0.000000 0.000000
vn -1.000000 -0.000000 0.000000
vn -1.000000 -0.000000 0.000000
vn -1.000000 -0.000000 0.000000
vn 0.000000 -0.704638 -0.709567
vn 0.000000 -0.704638 -0.709567
vn 0.000000 -0.704638 -0.709567
vn 0.000000 -0.704638 -0.709567
vn 0.000000 0.709569 -0.704636
vn 0.000000 0.709569 -0.704636
vn 0.000000 0.709569 -0.704636
vn 0.000000 0.709569 -0.704636
vn 0.000000 -0.709567 0.704638
vn 0.000000 -0.709567 0.704638
vn 0.000000 -0.709567 0.704638
vn 0.000000 -0.709567 0.704638
vn 0.478377 -0.876951 -0.045969
vn 0.478377 -0.876951 -0.045969
vn 0.478377 -0.876951 -0.045969
vn 0.375749 -0.136525 -0.916610
vn 0.375749 -0.136525 -0.916610
vn 0.375749 -0.136525 -0.916610
vn 0.433098 0.132711 0.891523
vn 0.433098 0.132711 0.891523
vn 0.433098 0.132711 0.891523
vn 0.375783 0.915635 0.142830
vn 0.375783 0.915634 0.142830
vn 0.375783 0.915635 0.142830
vn -0.433099 0.132710 0.891523
vn -0.433099 0.132710 0.891523
vn -0.433099 0.132710 0.891523
vn -0.209835 0.966054 0.150694
vn -0.209835 0.966054 0.150694
vn -0.209835 0.966054 0.150694
vn -0.478377 -0.876951 -0.045969
vn -0.478377 -0.876951 -0.045969
vn -0.478377 -0.876951 -0.045969
vn -0.209814 -0.144043 -0.967073
vn -0.209814 -0.144043 -0.967073
vn -0.209814 -0.144043 -0.967073
s off
g pCube15 group9
usemtl initialShadingGroup
f 1/1/1 3/2/2 19/3/3 21/29/4
f 2/5/5 1/4/6 6/36/7 5/24/8
f 3/33/9 2/5/10 8/12/11 7/34/12
f 4/6/13 6/7/14 22/23/15 24/8/16
f 5/24/17 4/9/18 12/37/19 11/13/20
f 7/10/21 9/25/22 14/17/23 13/11/24
f 9/25/25 8/12/26 11/13/27 10/26/28
f 10/26/29 12/14/30 18/38/31 17/18/32
f 13/15/33 15/27/34 20/21/35 19/16/36
f 15/27/37 14/17/38 17/18/39 16/28/40
f 16/28/41 18/19/42 24/20/43 23/22/44
f 21/29/45 20/21/46 23/22/47 22/23/48
f 2/5/49 5/24/50 11/13/51 8/12/52
f 9/25/53 10/26/54 17/18/55 14/17/56
f 15/27/57 16/28/58 23/22/59 20/21/60
f 21/29/61 22/23/62 6/7/63 1/1/64
f 4/9/65 24/30/66 18/31/67 12/37/68
f 19/32/69 3/33/70 7/34/71 13/35/72
f 1/4/73 2/5/74 3/33/75
f 4/9/76 5/24/77 6/36/78
f 7/34/79 8/12/80 9/25/81
f 10/26/82 11/13/83 12/37/84
f 13/11/85 14/17/86 15/27/87
f 16/28/88 17/18/89 18/38/90
f 19/16/91 20/21/92 21/29/93
f 22/23/94 23/22/95 24/20/96
g default
v 0.280494 0.058399 0.305554
v 0.280494 0.700820 -0.332404
v 0.280494 0.084804 0.332145
v 0.280494 0.727225 -0.305814
v -0.290272 0.084804 0.332145
v -0.290272 0.727225 -0.305814
v -0.290272 0.058399 0.305554
v -0.290272 0.700820 -0.332404
vt 0.375000 0.000000
vt 0.625000 0.000000
vt 0.375000 0.250000
vt 0.625000 0.250000
vt 0.375000 0.500000
vt 0.625000 0.500000
vt 0.375000 0.750000
vt 0.625000 0.750000
vt 0.375000 1.000000
vt 0.625000 1.000000
vt 0.875000 0.000000
vt 0.875000 0.250000
vt 0.125000 0.000000
vt 0.125000 0.250000
vn 1.000000 -0.000000 0.000000
vn 1.000000 -0.000000 0.000000
vn 1.000000 -0.000000 0.000000
vn 1.000000 -0.000000 0.000000
vn 0.000000 0.704638 0.709567
vn 0.000000 0.704638 0.709567
vn 0.000000 0.704638 0.709567
vn 0.000000 0.704638 0.709567
vn -1.000000 -0.000000 0.000000
vn -1.000000 -0.000000 0.000000
vn -1.000000 -0.000000 0.000000
vn -1.000000 -0.000000 0.000000
vn 0.000000 -0.704638 -0.709567
vn 0.000000 -0.704638 -0.709567
vn 0.000000 -0.704638 -0.709567
vn 0.000000 -0.704638 -0.709567
vn 0.000000 0.709567 -0.704638
vn 0.000000 0.709567 -0.704638
vn 0.000000 0.709567 -0.704638
vn 0.000000 0.709567 -0.704638
vn 0.000000 -0.709567 0.704638
vn 0.000000 -0.709567 0.704638
vn 0.000000 -0.709567 0.704638
vn 0.000000 -0.709567 0.704638
s off
g group9 pCube18 group4
usemtl initialShadingGroup
f 25/39/97 26/40/98 28/42/99 27/41/100
f 27/41/101 28/42/102 30/44/103 29/43/104
f 29/43/105 30/44/106 32/46/107 31/45/108
f 31/45/109 32/46/110 26/48/111 25/47/112
f 26/40/113 32/49/114 30/50/115 28/42/116
f 31/51/117 25/39/118 27/41/119 29/52/120
g default
v -0.333746 0.026206 0.295006
v -0.320510 0.024753 0.293542
v -0.320489 0.017123 0.303826
v -0.320489 0.694278 -0.368626
v -0.320510 0.683941 -0.361067
v -0.333746 0.685395 -0.359604
v -0.293968 0.016923 0.303625
v -0.293989 0.024553 0.293341
v -0.280709 0.025806 0.294603
v -0.280709 0.684994 -0.360007
v -0.293989 0.683741 -0.361269
v -0.293968 0.694078 -0.368827
v -0.292910 0.086591 0.373781
v -0.279651 0.095475 0.364759
v -0.292889 0.096928 0.366223
v -0.292889 0.756117 -0.288387
v -0.279651 0.754663 -0.289850
v -0.292910 0.763747 -0.298671
v -0.319431 0.086791 0.373982
v -0.319410 0.097128 0.366424
v -0.332687 0.095875 0.365162
v -0.332687 0.755063 -0.289448
v -0.319410 0.756317 -0.288186
v -0.319431 0.763947 -0.298469
vt 0.378317 0.995326
vt 0.375000 0.995326
vt 0.375000 0.754674
vt 0.378317 0.000000
vt 0.378317 0.062489
vt 0.625000 0.995326
vt 0.621683 0.995326
vt 0.625000 0.754674
vt 0.629674 0.062489
vt 0.375000 0.254674
vt 0.375000 0.495326
vt 0.378317 0.187504
vt 0.621683 0.187504
vt 0.625000 0.254674
vt 0.375000 0.562496
vt 0.375000 0.687511
vt 0.378317 0.495326
vt 0.621683 0.495326
vt 0.625000 0.562496
vt 0.625000 0.687511
vt 0.378317 0.687511
vt 0.621683 0.687511
vt 0.621683 0.754674
vt 0.621683 0.062489
vt 0.378317 0.254674
vt 0.621683 0.254674
vt 0.378317 0.562496
vt 0.621683 0.562496
vt 0.378317 0.754674
vt 0.870326 0.062489
vt 0.870326 0.187504
vt 0.129674 0.062489
vt 0.370326 0.062489
vt 0.370326 0.187504
vt 0.129674 0.187504
vt 0.621680 0.000000
vt 0.629674 0.187504
vt 0.625000 0.495326
vn -0.690608 -0.507945 0.514833
vn -0.690608 -0.507945 0.514833
vn -0.690608 -0.507945 0.514833
vn -0.690608 -0.507945 0.514833
vn -0.153958 -0.696238 -0.701106
vn -0.153958 -0.696238 -0.701106
vn -0.153959 -0.696238 -0.701106
vn -0.153959 -0.696238 -0.701106
vn -0.010582 -0.803050 -0.595818
vn -0.010582 -0.803050 -0.595818
vn -0.010582 -0.803050 -0.595818
vn -0.010582 -0.803050 -0.595818
vn -0.690608 0.518361 -0.504344
vn -0.690608 0.518361 -0.504344
vn -0.690608 0.518361 -0.504344
vn -0.690608 0.518361 -0.504344
vn -0.010582 -0.590202 -0.807186
vn -0.010582 -0.590202 -0.807186
vn -0.010582 -0.590202 -0.807186
vn -0.010582 -0.590202 -0.807186
vn 0.690543 -0.518405 0.504388
vn 0.690543 -0.518405 0.504388
vn 0.690543 -0.518405 0.504388
vn 0.690543 -0.518405 0.504388
vn 0.132750 -0.698402 -0.703287
vn 0.132750 -0.698402 -0.703287
vn 0.132750 -0.698402 -0.703287
vn 0.132750 -0.698402 -0.703287
vn 0.690542 0.507989 -0.514877
vn 0.690542 0.507989 -0.514877
vn 0.690542 0.507989 -0.514877
vn 0.690542 0.507989 -0.514877
vn 0.010581 0.590206 0.807183
vn 0.010581 0.590206 0.807183
vn 0.010581 0.590206 0.807183
vn 0.010581 0.590206 0.807183
vn 0.153934 0.696240 0.701109
vn 0.153934 0.696240 0.701109
vn 0.153934 0.696240 0.701109
vn 0.153934 0.696240 0.701109
vn 0.010583 0.803049 0.595819
vn 0.010583 0.803049 0.595819
vn 0.010583 0.803049 0.595819
vn 0.010583 0.803049 0.595819
vn -0.132774 0.698400 0.703284
vn -0.132774 0.698400 0.703284
vn -0.132774 0.698400 0.703284
vn -0.132774 0.698400 0.703284
vn -0.010704 -0.704597 -0.709527
vn -0.010704 -0.704597 -0.709527
vn -0.010704 -0.704597 -0.709527
vn -0.010704 -0.704597 -0.709527
vn 0.999943 -0.007542 -0.007594
vn 0.999943 -0.007542 -0.007594
vn 0.999943 -0.007542 -0.007594
vn 0.999943 -0.007542 -0.007594
vn 0.010703 0.704597 0.709527
vn 0.010703 0.704597 0.709527
vn 0.010703 0.704597 0.709527
vn 0.010703 0.704597 0.709527
vn -0.999943 0.007542 0.007594
vn -0.999943 0.007542 0.007594
vn -0.999943 0.007542 0.007594
vn -0.999943 0.007542 0.007594
vn 0.000001 0.709567 -0.704638
vn 0.000001 0.709567 -0.704638
vn 0.000001 0.709567 -0.704638
vn 0.000001 0.709567 -0.704638
vn 0.000000 -0.709567 0.704638
vn 0.000000 -0.709567 0.704638
vn 0.000000 -0.709567 0.704638
vn 0.000000 -0.709567 0.704638
vn -0.152251 -0.793869 -0.588721
vn -0.152251 -0.793869 -0.588721
vn -0.152251 -0.793869 -0.588721
vn -0.152255 -0.583177 -0.797949
vn -0.152255 -0.583177 -0.797949
vn -0.152255 -0.583177 -0.797949
vn 0.131276 -0.796010 -0.590876
vn 0.131276 -0.796010 -0.590876
vn 0.131276 -0.796010 -0.590876
vn 0.131280 -0.585304 -0.800115
vn 0.131280 -0.585304 -0.800115
vn 0.131280 -0.585304 -0.800115
vn 0.152226 0.583174 0.797957
vn 0.152226 0.583174 0.797957
vn 0.152226 0.583174 0.797957
vn 0.152227 0.793876 0.588718
vn 0.152227 0.793876 0.588718
vn 0.152227 0.793876 0.588718
vn -0.131305 0.585309 0.800108
vn -0.131305 0.585309 0.800108
vn -0.131305 0.585309 0.800108
vn -0.131302 0.796006 0.590876
vn -0.131302 0.796006 0.590876
vn -0.131302 0.796006 0.590876
s off
g group9 group4 pCube17
usemtl initialShadingGroup
f 33/53/121 35/54/122 51/55/123 53/81/124
f 34/57/125 33/56/126 38/88/127 37/76/128
f 35/85/129 34/57/130 40/64/131 39/86/132
f 36/58/133 38/59/134 54/75/135 56/60/136
f 37/76/137 36/61/138 44/89/139 43/65/140
f 39/62/141 41/77/142 46/69/143 45/63/144
f 41/77/145 40/64/146 43/65/147 42/78/148
f 42/78/149 44/66/150 50/90/151 49/70/152
f 45/67/153 47/79/154 52/73/155 51/68/156
f 47/79/157 46/69/158 49/70/159 48/80/160
f 48/80/161 50/71/162 56/72/163 55/74/164
f 53/81/165 52/73/166 55/74/167 54/75/168
f 34/57/169 37/76/170 43/65/171 40/64/172
f 41/77/173 42/78/174 49/70/175 46/69/176
f 47/79/177 48/80/178 55/74/179 52/73/180
f 53/81/181 54/75/182 38/59/183 33/53/184
f 36/61/185 56/82/186 50/83/187 44/89/188
f 51/84/189 35/85/190 39/86/191 45/87/192
f 33/56/193 34/57/194 35/85/195
f 36/61/196 37/76/197 38/88/198
f 39/86/199 40/64/200 41/77/201
f 42/78/202 43/65/203 44/89/204
f 45/63/205 46/69/206 47/79/207
f 48/80/208 49/70/209 50/90/210
f 51/68/211 52/73/212 53/81/213
f 54/75/214 55/74/215 56/72/216
g default
v 0.282404 0.033033 0.285580
v 0.322052 0.053508 0.277918
v 0.282404 0.030693 0.300574
v 0.290044 0.705612 -0.369657
v 0.322052 0.690068 -0.354221
v 0.290044 0.690602 -0.367421
v 0.282404 0.043367 0.313337
v 0.322052 0.066182 0.290680
v 0.282404 0.058378 0.311102
v 0.290044 0.715947 -0.341899
v 0.322052 0.702742 -0.341458
v 0.290044 0.718286 -0.356895
v -0.292181 0.043367 0.313337
v -0.292181 0.058378 0.311102
v -0.331829 0.066182 0.290680
v -0.331829 0.702742 -0.341458
v -0.271351 0.715947 -0.341899
v -0.271351 0.718286 -0.356895
v -0.292181 0.030693 0.300574
v -0.331829 0.053508 0.277918
v -0.292181 0.033033 0.285580
v -0.271351 0.690602 -0.367421
v -0.331829 0.690068 -0.354221
v -0.271351 0.705612 -0.369657
vt 0.378317 0.995326
vt 0.375000 0.995326
vt 0.375000 0.754674
vt 0.378317 0.000000
vt 0.378317 0.062489
vt 0.625000 0.995326
vt 0.621683 0.995326
vt 0.625000 0.754674
vt 0.629674 0.062489
vt 0.375000 0.254674
vt 0.375000 0.495326
vt 0.378317 0.187504
vt 0.621683 0.187504
vt 0.625000 0.254674
vt 0.375000 0.562496
vt 0.375000 0.687511
vt 0.378317 0.495326
vt 0.621683 0.495326
vt 0.625000 0.562496
vt 0.625000 0.687511
vt 0.378317 0.687511
vt 0.621683 0.687511
vt 0.621683 0.754674
vt 0.621683 0.062489
vt 0.378317 0.254674
vt 0.621683 0.254674
vt 0.378317 0.562496
vt 0.621683 0.562496
vt 0.378317 0.754674
vt 0.870326 0.062489
vt 0.870326 0.187504
vt 0.129674 0.062489
vt 0.370326 0.062489
vt 0.370326 0.187504
vt 0.129674 0.187504
vt 0.621680 0.000000
vt 0.629674 0.187504
vt 0.625000 0.495326
vn 0.000000 -0.988038 -0.154213
vn 0.000000 -0.988038 -0.154213
vn 0.000000 -0.988038 -0.154213
vn 0.000000 -0.988038 -0.154213
vn 0.243522 -0.684149 -0.687486
vn 0.243522 -0.684149 -0.687486
vn 0.243522 -0.684149 -0.687486
vn 0.243522 -0.684149 -0.687486
vn 0.629887 -0.551111 0.547283
vn 0.629887 -0.551111 0.547283
vn 0.629887 -0.551111 0.547283
vn 0.629887 -0.551111 0.547283
vn -0.000000 -0.147322 -0.989089
vn -0.000000 -0.147322 -0.989089
vn -0.000000 -0.147322 -0.989089
vn -0.000000 -0.147322 -0.989089
vn 0.564799 0.585555 -0.581487
vn 0.564799 0.585555 -0.581487
vn 0.564799 0.585555 -0.581487
vn 0.564799 0.585555 -0.581487
vn 0.000000 0.147236 0.989101
vn 0.000000 0.147236 0.989101
vn 0.000000 0.147236 0.989101
vn 0.000000 0.147236 0.989101
vn 0.243564 0.682694 0.688917
vn 0.243564 0.682694 0.688917
vn 0.243564 0.682694 0.688917
vn 0.243564 0.682694 0.688917
vn 0.000000 0.988051 0.154127
vn 0.000000 0.988051 0.154127
vn 0.000000 0.988051 0.154127
vn 0.000000 0.988051 0.154127
vn -0.629888 -0.551111 0.547282
vn -0.629888 -0.551111 0.547282
vn -0.629888 -0.551111 0.547282
vn -0.629888 -0.551111 0.547282
vn -0.176584 0.694995 0.696994
vn -0.176584 0.694995 0.696994
vn -0.176584 0.694995 0.696994
vn -0.176584 0.694995 0.696994
vn -0.340572 0.667148 -0.662513
vn -0.340572 0.667149 -0.662513
vn -0.340572 0.667148 -0.662513
vn -0.340572 0.667149 -0.662513
vn -0.176552 -0.692137 -0.699840
vn -0.176552 -0.692137 -0.699840
vn -0.176552 -0.692137 -0.699840
vn -0.176552 -0.692137 -0.699840
vn 1.000000 -0.000000 0.000000
vn 1.000000 -0.000000 0.000000
vn 1.000000 -0.000000 0.000000
vn 1.000000 -0.000000 0.000000
vn 0.000000 0.704638 0.709567
vn 0.000000 0.704638 0.709567
vn 0.000000 0.704638 0.709567
vn 0.000000 0.704638 0.709567
vn -1.000000 0.000001 0.000000
vn -1.000000 0.000001 0.000000
vn -1.000000 0.000001 0.000000
vn -1.000000 0.000001 0.000000
vn -0.000000 -0.704638 -0.709567
vn -0.000000 -0.704638 -0.709567
vn -0.000000 -0.704638 -0.709567
vn -0.000000 -0.704638 -0.709567
vn -0.000000 0.709566 -0.704639
vn -0.000000 0.709566 -0.704639
vn -0.000000 0.709566 -0.704639
vn -0.000000 0.709566 -0.704639
vn 0.000000 -0.709567 0.704638
vn 0.000000 -0.709567 0.704638
vn 0.000000 -0.709567 0.704638
vn 0.000000 -0.709567 0.704638
vn 0.433056 -0.890584 -0.139003
vn 0.433056 -0.890584 -0.139003
vn 0.433056 -0.890584 -0.139003
vn 0.375746 -0.136528 -0.916611
vn 0.375746 -0.136528 -0.916611
vn 0.375746 -0.136528 -0.916611
vn 0.433101 0.132709 0.891523
vn 0.433101 0.132709 0.891523
vn 0.433101 0.132709 0.891523
vn 0.375786 0.915634 0.142830
vn 0.375785 0.915634 0.142830
vn 0.375785 0.915634 0.142830
vn -0.433097 0.132711 0.891524
vn -0.433097 0.132711 0.891524
vn -0.433097 0.132711 0.891524
vn -0.209836 0.966054 0.150694
vn -0.209836 0.966054 0.150694
vn -0.209836 0.966054 0.150694
vn -0.433057 -0.890584 -0.139003
vn -0.433057 -0.890584 -0.139003
vn -0.433057 -0.890584 -0.139003
vn -0.209809 -0.144041 -0.967074
vn -0.209809 -0.144041 -0.967074
vn -0.209809 -0.144041 -0.967074
s off
g group9 group4 pCube16
usemtl initialShadingGroup
f 57/91/217 59/92/218 75/93/219 77/119/220
f 58/95/221 57/94/222 62/126/223 61/114/224
f 59/123/225 58/95/226 64/102/227 63/124/228
f 60/96/229 62/97/230 78/113/231 80/98/232
f 61/114/233 60/99/234 68/127/235 67/103/236
f 63/100/237 65/115/238 70/107/239 69/101/240
f 65/115/241 64/102/242 67/103/243 66/116/244
f 66/116/245 68/104/246 74/128/247 73/108/248
f 69/105/249 71/117/250 76/111/251 75/106/252
f 71/117/253 70/107/254 73/108/255 72/118/256
f 72/118/257 74/109/258 80/110/259 79/112/260
f 77/119/261 76/111/262 79/112/263 78/113/264
f 58/95/265 61/114/266 67/103/267 64/102/268
f 65/115/269 66/116/270 73/108/271 70/107/272
f 71/117/273 72/118/274 79/112/275 76/111/276
f 77/119/277 78/113/278 62/97/279 57/91/280
f 60/99/281 80/120/282 74/121/283 68/127/284
f 75/122/285 59/123/286 63/124/287 69/125/288
f 57/94/289 58/95/290 59/123/291
f 60/99/292 61/114/293 62/126/294
f 63/124/295 64/102/296 65/115/297
f 66/116/298 67/103/299 68/127/300
f 69/101/301 70/107/302 71/117/303
f 72/118/304 73/108/305 74/128/306
f 75/106/307 76/111/308 77/119/309
f 78/113/310 79/112/311 80/110/312
