<svg xmlns="http://www.w3.org/2000/svg" viewBox="0 0 400.85 1229.47"><defs><style>.cls-1{fill:#c2ac7f;}.cls-2{fill:#8f2d14;}.cls-3{fill:#69a0a8;}.cls-4{fill:#2b2b2b;}.cls-5{fill:#a58d62;}.cls-6{fill:#9b2f1e;}.cls-7{fill:#603117;}.cls-8{fill:#fff;}</style></defs><title>GGJAsset 1Character</title><g id="Layer_2" data-name="Layer 2"><g id="Character"><g id="Body"><g id="RightArm"><rect class="cls-1" x="281.95" y="401.14" width="94.49" height="406.32" rx="47.25"/><path class="cls-2" d="M376.45,448.39V634.55H282V448.39a47.25,47.25,0,0,1,94.5,0Z"/><rect class="cls-2" x="277.03" y="598.35" width="110.84" height="52.8" rx="12"/></g><path id="Shoulders" class="cls-2" d="M339.2,438.45c0-75.61-95.69-91.75-136.89-91.75S65.42,362.84,65.42,438.45v159.9H339.2Z"/><path id="Dungarees" class="cls-3" d="M339.2,558.52V1191.1H65.42V558.52h46a12,12,0,0,0,12-12V362c15.81-6.65,32.78-10.68,48.05-12.93V485.74a12,12,0,0,0,12,12h68.23a12,12,0,0,0,12-12V355.79c13.62,4.07,27.16,9.75,38.93,17.54V546.52a12,12,0,0,0,12,12Z"/><rect id="LeftBoot" class="cls-4" x="65.42" y="1164.5" width="115.98" height="64.97" rx="32.49"/><rect id="RightBoot" class="cls-4" x="233.08" y="1164.5" width="137.7" height="64.97" rx="32.49"/><g id="LeftArm"><rect id="Left_Arms" data-name="Left Arms" class="cls-1" x="8.17" y="401.14" width="94.49" height="406.32" rx="47.25"/><path class="cls-5" d="M54.3,791.52C42.22,768.64,42.48,742,39.46,717c-3.51-29.1-6.1-58.3-8.56-87.51-1.28-15.05-2.46-30.11-3.84-45.16-.57-6.25-1.27-12.49-3.47-18.42-2.26-6.09-5.88-11.82-9.61-17.11-2-2.84-4-5.74-5.81-8.69V760.22a47.38,47.38,0,0,0,47.25,47.24h0a46.77,46.77,0,0,0,9-.87A88.15,88.15,0,0,1,54.3,791.52Z"/><path class="cls-2" d="M102.67,448.39V634.55H8.17V448.39a47.25,47.25,0,0,1,94.5,0Z"/><rect class="cls-2" y="598.35" width="110.84" height="52.8" rx="12"/></g></g><g id="Face"><path class="cls-1" d="M351.55,234.3A136.9,136.9,0,0,1,79.06,253.15c-12.37-1.73-22-15.57-22-32.39,0-18,11-32.57,24.63-32.57a18.7,18.7,0,0,1,3.9.41,136.92,136.92,0,0,1,266,45.7Z"/><path class="cls-5" d="M206.5,343.35c-32-8.41-60.83-24.69-79.92-52.26-19.8-28.59-28-63.57-27.15-98a193.45,193.45,0,0,1,4.8-39.67A136,136,0,0,0,85.58,188.6a18.7,18.7,0,0,0-3.9-.41c-13.6,0-24.63,14.58-24.63,32.57,0,16.82,9.64,30.66,22,32.39a136.9,136.9,0,0,0,211.35,95.17A214,214,0,0,1,206.5,343.35Z"/><path class="cls-6" d="M85.94,189.42c-13.47-12-26.74-25.27-32.94-42.2S49.6,108.8,64,97.94c4.19-3.16,9.54-5.32,14.66-4.21,3.24.7,6.06,2.61,8.68,4.64,4.51,3.5,8.84,7.7,10.58,13.14s.06,12.32-5,14.92c-8.58,4.4-17.7-5.85-19.67-15.29-3.64-17.38,2.9-35.3,11.45-50.87,5.8-10.57,12.85-20.88,22.94-27.48,7.89-5.16,17.23-7.77,26.6-8.8,14.87-1.64,31.19,1.05,41.83,11.57s12.58,30.2,1.16,39.88A13.55,13.55,0,0,1,169.14,79c-5.15.17-9.73-4-11.38-8.88s-.88-10.27.65-15.2c4.25-13.72,14.16-25.19,25.89-33.48A91.69,91.69,0,0,1,240.93,4.84c15.08.69,31.34,6.27,38.8,19.39s.14,33.93-14.93,34.86a7.08,7.08,0,0,1-3.81-.61c-1.88-1-2.78-3.19-3.26-5.27-2.75-12.09,4.58-24.81,15-31.54s23.25-8.52,35.64-8.83c18.12-.45,36.83,2.12,52.47,11.28s27.68,25.81,27.71,43.94-14.35,36.19-32.46,37a8.49,8.49,0,0,1-4.68-.8c-2.89-1.66-3.33-5.83-2.07-8.91,2.9-7.07,12.23-9.66,19.51-7.36s12.84,8.15,17.62,14.11c3.94,4.92,7.68,10.25,9.17,16.38,2.73,11.2-2.58,23-10.15,31.67-21.08,24.15-61.24,28.5-87,9.42-5.14-3.81-10-10.84-6.33-16.05,3.27,4.19,1.61,10.71-2.24,14.37s-9.25,5.16-14.43,6.34a229.12,229.12,0,0,1-52.84,5.66c-10.21-.1-21.11-1.15-29.11-7.5s-11-19.77-3.58-26.75c9.88,4.11,11.95,18.36,6.46,27.55s-15.91,14.15-26.06,17.55c-10.94,3.67-22.85,6.11-34,3s-21-13.14-20.51-24.67c11.42,0,21.44,10.52,22,21.92s-7.67,22.33-18.45,26.08-18.82,4-27.52-3.43C89.93,202.05,86.81,191.81,85.94,189.42Z"/><path class="cls-7" d="M89.3,186.06C76.84,174.93,64,162.65,57.87,146.72,52.9,133.77,53,117,62.39,106a23.43,23.43,0,0,1,9-6.8c5-2,9-.19,13.07,2.92,4.62,3.54,14.44,13.54,7.24,19.5-6.39,5.29-12.78-7-13.84-11.71-2-8.89-.52-18.43,2.13-27,5-16.1,14.65-35.06,28.72-45C121.76,28.52,140.77,26,156.18,30,170,33.6,182,44.91,180.05,60.25c-.67,5.38-5.39,15.51-12.38,13.82-9.9-2.38-5.41-17.19-2.68-23.22,13.67-30.19,53.78-46.65,85.35-40.1,12.84,2.67,27.89,10.82,27.59,25.8-.11,5.46-2.24,11.45-6.54,15-1.58,1.3-5.06,3.45-7.26,2.79-3.25-1-2.33-8.08-1.75-10.75,3.86-17.83,23.1-24.43,39.2-25.67,17.25-1.34,35.81,0,51.63,7.52,14.25,6.78,26.38,19.17,29.78,35C386.13,75,379.14,91.2,365.5,97.86c-2.58,1.26-6.47,2.82-9.41,2.47-2.25-.26-3-.73-2.33-3.1a7.21,7.21,0,0,1,3.78-4c6.91-3.6,14.36.5,19.41,5.32,6,5.74,12.62,13.57,14.27,21.93s-2,16.88-6.88,23.52c-16.57,22.58-51,28.95-75.45,16.4-4-2.08-16.12-8.52-12.63-14.51h-8.2c7,10.62-15.5,14.17-21.28,15.29a221.74,221.74,0,0,1-36.52,3.87c-10.19.24-21.89.73-31-4.56-6.93-4-12.53-14.71-5.92-21.52l-5.76.74c7.05,3.3,8.62,12.15,5.83,19-3.73,9.08-14.17,13.92-22.84,17C160,179.39,148,182.38,137,179c-8.78-2.68-16.41-10.34-16.36-19.88l-4.75,4.75c8.07.31,15,6.61,16.79,14.39,2,8.47-2.9,17.33-9.93,21.93-6.69,4.37-16.67,6.66-23.95,2.59-5.45-3-6.28-9-8.27-14.62s-11.2-3.26-9.16,2.52c1.43,4.07,2.66,8.22,4.48,12.15,2.18,4.73,6.47,7.66,11.22,9.63,10.88,4.5,24.89.76,33.75-6.48,9.06-7.4,14.24-20.08,10.66-31.57a28.22,28.22,0,0,0-25.59-20,4.82,4.82,0,0,0-4.75,4.75c-.07,12.61,8.73,23.14,20.07,27.84,14.27,5.93,30.92,2.18,44.77-3.18,11.58-4.48,24-12,27.3-24.84,2.62-10.27-.77-22.64-10.91-27.38a4.91,4.91,0,0,0-5.76.74c-8.65,8.93-6.51,23.21,1.69,31.74,10.09,10.49,26.55,10.81,40.07,10.6a225.38,225.38,0,0,0,49.95-6.18c6.57-1.61,13.59-4.27,17.44-10.2,3.38-5.19,4-11.84.51-17.12a4.8,4.8,0,0,0-8.2,0c-5.57,9.58,2.5,18.93,10.24,24.1a65.41,65.41,0,0,0,26,10c18.95,3,39.2-1.23,54.7-12.77,17-12.63,28.93-34.95,17.05-55-5.39-9.1-13.43-18.86-23.38-23-8.15-3.43-18.6-2.38-24.76,4.44-6.6,7.3-4.72,20.39,6.54,21,9.49.5,19-4.4,25.65-10.89,15.27-15,16.59-38,6.12-56.06-11.58-19.95-33.13-30.44-55.32-33.56-21.55-3-49.21-2.93-66.28,12.65-7.74,7.06-13,17.69-12.13,28.32.36,4.24,1.48,8.88,5.07,11.55s8.76,2.33,12.87.94C287,57.2,291.8,34.44,283.11,20.63,272,2.9,248.28-1.37,228.93.35c-23.13,2.05-46.34,12.37-61.76,30-7.09,8.13-13,18.13-14.64,28.91-1.57,10.12,2.62,22.25,14,24.19,9.54,1.63,17.84-6.56,21.09-14.76C191.05,60,190,50,186,41.58c-9-19-32.63-24.42-51.81-22.34C122.48,20.51,111,24,101.58,31.32c-9,7-15.56,16.63-21,26.55C70.42,76.39,59.14,106,74.81,124.78c5.8,6.95,16.23,10.61,23.55,3.53,7.56-7.31,5.53-18.89-.46-26.38-6.64-8.3-17.18-15.67-28.18-12.28-9.34,2.89-16.6,11-20.45,19.73-8.75,19.83-2.56,42,9.83,58.69,6.8,9.18,15,17.12,23.48,24.71C87.12,196.84,93.86,190.15,89.3,186.06Z"/><path class="cls-6" d="M157.17,331.6c.58-23.15,17.59-43.52,38.27-53.94S240,265.16,263.12,265c14.54-.09,29.9.75,42.09,8.67,9.37,6.1,15.89,15.86,20,26.26s6.05,21.5,8,32.51c-15.37-.28-29.74-7.16-44.62-11-28.74-7.5-59.31-3.7-88,3.87Z"/><path class="cls-7" d="M161.92,331.6c1.21-30.25,28.81-50.23,55.82-57.09,15.61-4,31.85-4.8,47.9-4.75,15.54,0,32.09,1.64,43.55,13.33,13.12,13.38,16.33,32.93,19.39,50.63l4.58-6c-16.64-.57-31.8-8.42-47.86-11.95-16.41-3.6-33.39-3.89-50-2-12.77,1.47-25,5.07-37.58,7.15-7.33,1.2-14.72,2.14-22.07,3.22L155.91,327c-6,.88-3.47,10,2.52,9.16L198,330.41c10.47-1.53,20.64-4.72,31.14-6.31,16.77-2.54,34.22-3,50.93.25,17.95,3.51,34.58,12.21,53.1,12.85,3.34.12,5.08-3.11,4.58-6-3.13-18.08-6.79-36.63-18.66-51.25-11.2-13.78-27.83-18.58-45-19.47-33.83-1.76-73,1.88-99.19,25.61-13,11.76-21.79,27.83-22.5,45.52C152.17,337.71,161.67,337.7,161.92,331.6Z"/><g id="LeftEye"><ellipse class="cls-8" cx="214.28" cy="220.76" rx="21.2" ry="28.04"/><circle cx="216.75" cy="220.76" r="12.45"/><path class="cls-5" d="M233.77,209.68h-39c3.24-10,10.74-17,19.48-17S230.52,199.7,233.77,209.68Z"/></g><g id="RightEye"><ellipse class="cls-8" cx="294.17" cy="220.76" rx="21.2" ry="28.04"/><circle cx="296.64" cy="220.76" r="12.45"/><path class="cls-5" d="M313.66,209.68h-39c3.24-10,10.74-17,19.48-17S310.41,199.7,313.66,209.68Z"/></g></g></g></g></svg>