# This file uses centimeters as units for non-parametric coordinates.

mtllib FINAL final broken gravestone1.mtl
g default
v 0.798396 1.966544 0.044095
v 0.798396 0.043524 0.044095
v 0.798396 1.966544 -0.162473
v 0.798396 0.043524 -0.162473
v -0.698589 1.966544 -0.162473
v -0.698589 0.043524 -0.162473
v -0.698589 1.966544 0.044095
v -0.698589 0.043524 0.044095
v 0.915810 1.687289 0.104692
v 0.915810 1.687289 -0.223070
v 0.915810 1.997020 0.104692
v 0.915810 1.997020 -0.223070
v -0.816003 1.997020 0.104692
v -0.816003 1.997020 -0.223070
v -0.816003 1.687289 0.104692
v -0.816003 1.687289 -0.223070
v -0.844610 1.845454 -0.223070
v -0.844610 1.845454 0.104692
v 0.944416 1.845454 0.104692
v 0.944416 1.845454 -0.223070
v 0.846739 0.017867 0.069348
v 0.846739 0.017867 -0.187726
v 0.846739 0.327597 0.069348
v 0.846739 0.327597 -0.187726
v -0.746933 0.327597 0.069348
v -0.746933 0.327597 -0.187726
v -0.746933 0.017867 0.069348
v -0.746933 0.017867 -0.187726
v -0.773258 0.176032 -0.187726
v -0.773258 0.176032 0.069348
v 0.873064 0.176032 0.069348
v 0.873064 0.176032 -0.187726
v 0.903696 1.757261 0.074226
v 0.903696 1.757261 -0.192605
v -0.717460 2.187318 0.074226
v -0.717460 2.187318 -0.192605
v -0.803890 1.698465 0.074226
v -0.803890 1.698465 -0.192605
v 0.000592 2.581506 -0.192605
v 0.000592 2.581506 0.074226
v 0.000592 1.757261 0.074226
v 0.000592 1.757261 -0.192605
v -0.803890 1.924875 -0.211196
v -0.803890 1.924875 0.092818
v 0.000592 1.936834 0.099304
v 0.903696 1.999828 0.092818
v 0.903696 1.999828 -0.194105
v 0.000592 1.936834 -0.217682
v -0.775194 2.053232 -0.210729
v -0.775194 2.053232 0.092350
v 0.000592 2.060512 0.099165
v 0.000592 2.060512 -0.217543
v -0.744087 2.133097 -0.204711
v -0.744087 2.133097 0.086332
v 0.000592 2.141514 0.097241
v 0.000592 2.141514 -0.215619
v 0.056185 2.282575 0.095579
v 0.214703 2.133682 0.097496
v 0.450489 2.046458 0.095859
v 0.673251 2.039659 0.094280
v 0.066525 2.325873 -0.213195
v 0.634827 2.052957 -0.212600
v 0.510835 2.070824 -0.213567
v 0.247083 2.173659 -0.211929
v 0.127749 2.215356 0.096445
v 0.131627 2.059421 0.098144
v 0.241510 2.065381 -0.215666
v 0.506762 1.972140 -0.204468
v 0.680547 1.984263 0.094421
v 0.176335 2.233301 -0.212425
v 0.247083 2.173659 -0.211929
v 0.214703 2.133682 0.097496
vt 0.585814 0.695484
vt 0.585814 0.015380
vt 0.585814 0.015380
vt 0.585814 0.695484
vt 0.056384 0.015380
vt 0.056384 0.695484
vt 0.056384 0.015380
vt 0.056384 0.695484
vt 0.637457 0.652659
vt 0.637457 0.652659
vt 0.627339 0.706262
vt 0.627339 0.706262
vt 0.014859 0.706262
vt 0.014859 0.706262
vt 0.004742 0.652659
vt 0.004742 0.652659
vt 0.014859 0.596722
vt 0.014859 0.596722
vt 0.627339 0.596722
vt 0.627339 0.596722
vt 0.612222 0.062244
vt 0.612222 0.062244
vt 0.602912 0.115847
vt 0.602912 0.115847
vt 0.039287 0.115847
vt 0.039287 0.115847
vt 0.029976 0.062244
vt 0.029976 0.062244
vt 0.039287 0.006306
vt 0.039287 0.006306
vt 0.602912 0.006306
vt 0.602912 0.006306
vt 0.303660 0.899619
vt 0.303660 0.899619
vt 0.049710 0.786717
vt 0.049710 0.786717
vt 0.040293 0.767541
vt 0.040293 0.767541
vt 0.623055 0.634621
vt 0.623055 0.634621
vt 0.303660 0.634621
vt 0.303660 0.634621
vt 0.303660 0.770517
vt 0.303660 0.770517
vt 0.019143 0.634621
vt 0.019143 0.634621
vt 0.019143 0.693900
vt 0.019143 0.693900
vt 0.303660 0.698129
vt 0.617919 0.696985
vt 0.623878 0.702642
vt 0.303660 0.698129
vt 0.029292 0.739295
vt 0.029292 0.739295
vt 0.303660 0.741870
vt 0.303660 0.741870
vt 0.349077 0.770064
vt 0.379383 0.741240
vt 0.462772 0.710391
vt 0.541555 0.707987
vt 0.369931 0.769856
vt 0.527966 0.740003
vt 0.484114 0.740368
vt 0.435725 0.752951
vt 0.362759 0.757051
vt 0.350002 0.741484
vt 0.388864 0.741161
vt 0.482674 0.695759
vt 0.540268 0.697268
vt 0.409945 0.759575
vt 0.642470 0.580489
vt 0.642470 0.011492
vt 0.703590 0.011492
vt 0.703590 0.580489
vt 0.642732 0.580489
vt 0.642732 0.011492
vt 0.703852 0.011492
vt 0.703852 0.580489
vt 0.475828 0.963927
vt 0.475828 0.819796
vt 0.542477 0.819796
vt 0.542477 0.963927
vt 0.406276 0.963927
vt 0.406276 0.819796
vt 0.690814 0.819796
vt 0.690814 0.963927
vt 0.624164 0.963927
vt 0.624164 0.819796
vt 0.554612 0.963927
vt 0.554612 0.819796
vt 0.702948 0.879119
vt 0.815994 0.879119
vt 0.815994 0.945769
vt 0.702948 0.945769
vt 0.702948 0.809567
vt 0.815994 0.809567
vt 0.794842 0.767153
vt 0.681795 0.767153
vt 0.681795 0.700503
vt 0.794842 0.700503
vt 0.681795 0.630951
vt 0.794842 0.630951
vt 0.976594 0.407702
vt 0.867399 0.407702
vt 0.862445 0.385513
vt 0.981548 0.385513
vt 0.859983 0.352830
vt 0.984011 0.352830
vt 0.859791 0.300303
vt 0.984203 0.300303
vt 0.867399 0.207649
vt 0.976594 0.207649
vt 0.886530 0.145442
vt 0.886530 0.072307
vt 0.953015 0.071895
vt 0.953015 0.150538
vt 0.849071 0.964057
vt 0.839681 0.832604
vt 0.975462 0.851644
vt 0.966408 0.964057
vt 0.839300 0.803045
vt 0.975124 0.810936
vt 0.012867 0.839818
vt 0.040043 0.839818
vt 0.040043 0.983409
vt 0.012867 0.983409
vt 0.068012 0.983040
vt 0.040836 0.983040
vt 0.040836 0.839449
vt 0.068012 0.839449
vt 0.091926 0.839578
vt 0.113240 0.839578
vt 0.113240 0.971715
vt 0.091926 0.971715
vt 0.135615 0.971346
vt 0.114301 0.971346
vt 0.114301 0.839209
vt 0.135615 0.839209
vt 0.966714 0.018755
vt 0.989833 0.018755
vt 0.989833 0.097000
vt 0.966714 0.097000
vt 0.966714 0.166702
vt 0.989833 0.166702
vt 0.722042 0.019251
vt 0.839379 0.019251
vt 0.839379 0.335009
vt 0.722042 0.335009
vt 0.977505 0.584435
vt 0.842556 0.567538
vt 0.843199 0.466201
vt 0.969372 0.466201
vt 0.977929 0.638960
vt 0.841862 0.665497
vt 0.975511 0.767967
vt 0.839990 0.768155
vt 0.936993 0.057333
vt 0.906014 0.057333
vt 0.906014 0.026354
vt 0.936993 0.026354
vn 1.000000 0.000000 0.000000
vn 1.000000 0.000000 0.000000
vn 1.000000 0.000000 0.000000
vn 1.000000 0.000000 0.000000
vn 0.000000 0.000000 -1.000000
vn 0.000000 0.000000 -1.000000
vn 0.000000 0.000000 -1.000000
vn 0.000000 0.000000 -1.000000
vn -1.000000 0.000000 0.000000
vn -1.000000 0.000000 0.000000
vn -1.000000 0.000000 0.000000
vn -1.000000 0.000000 0.000000
vn 0.000000 0.000000 1.000000
vn 0.000000 0.000000 1.000000
vn 0.000000 0.000000 1.000000
vn 0.000000 0.000000 1.000000
vn 0.000000 -1.000000 0.000000
vn 0.000000 -1.000000 0.000000
vn 0.000000 -1.000000 0.000000
vn 0.000000 -1.000000 0.000000
vn 0.000000 1.000000 0.000000
vn 0.000000 1.000000 0.000000
vn 0.000000 1.000000 0.000000
vn 0.000000 1.000000 0.000000
vn 1.000000 0.000000 0.000000
vn 1.000000 0.000000 0.000000
vn 0.982650 0.185468 0.000000
vn 0.982650 0.185468 0.000000
vn 0.000000 1.000000 0.000000
vn 0.000000 1.000000 0.000000
vn 0.000000 1.000000 0.000000
vn 0.000000 1.000000 0.000000
vn -0.982650 0.185468 0.000000
vn -0.982650 0.185468 0.000000
vn -1.000000 0.000000 0.000000
vn -1.000000 0.000000 0.000000
vn 0.000000 -1.000000 0.000000
vn 0.000000 -1.000000 0.000000
vn 0.000000 -1.000000 0.000000
vn 0.000000 -1.000000 0.000000
vn 0.000000 0.000000 -1.000000
vn 0.000000 0.000000 -1.000000
vn 0.000000 0.000000 -1.000000
vn 0.000000 0.000000 -1.000000
vn 0.000000 0.000000 1.000000
vn 0.000000 0.000000 1.000000
vn 0.000000 0.000000 1.000000
vn 0.000000 0.000000 1.000000
vn -0.984034 -0.177980 0.000000
vn -0.984034 -0.177980 0.000000
vn 0.000000 0.000000 1.000000
vn 0.000000 0.000000 1.000000
vn 0.984034 -0.177980 0.000000
vn 0.984034 -0.177980 0.000000
vn 0.000000 0.000000 -1.000000
vn 0.000000 0.000000 -1.000000
vn 1.000000 0.000000 0.000000
vn 1.000000 0.000000 0.000000
vn 0.985249 0.171126 0.000000
vn 0.985249 0.171126 0.000000
vn 0.000000 1.000000 0.000000
vn 0.000000 1.000000 0.000000
vn 0.000000 1.000000 0.000000
vn 0.000000 1.000000 0.000000
vn -0.985249 0.171126 0.000000
vn -0.985249 0.171126 0.000000
vn -1.000000 0.000000 0.000000
vn -1.000000 0.000000 0.000000
vn 0.000000 -1.000000 0.000000
vn 0.000000 -1.000000 0.000000
vn 0.000000 -1.000000 0.000000
vn 0.000000 -1.000000 0.000000
vn 0.000000 0.000000 -1.000000
vn 0.000000 0.000000 -1.000000
vn 0.000000 0.000000 -1.000000
vn 0.000000 0.000000 -1.000000
vn 0.000000 0.000000 1.000000
vn 0.000000 0.000000 1.000000
vn 0.000000 0.000000 1.000000
vn 0.000000 0.000000 1.000000
vn -0.986430 -0.164183 0.000000
vn -0.986430 -0.164183 0.000000
vn 0.000000 0.000000 1.000000
vn 0.000000 0.000000 1.000000
vn 0.986430 -0.164183 0.000000
vn 0.986430 -0.164183 0.000000
vn 0.000000 0.000000 -1.000000
vn 0.000000 0.000000 -1.000000
vn -0.897603 0.440805 0.000000
vn -0.897603 0.440805 0.000000
vn -0.920384 0.391015 0.000000
vn -0.920384 0.391015 0.000000
vn 0.000000 -1.000000 0.000000
vn 0.000000 -1.000000 0.000000
vn 0.034412 -0.999408 0.000000
vn 0.034412 -0.999408 0.000000
vn -0.028889 0.071940 -0.996991
vn -0.058005 0.033862 -0.997742
vn -0.019617 0.060517 -0.997974
vn -0.481225 0.876597 0.000000
vn -0.481225 0.876597 0.000000
vn -0.481225 0.876597 0.000000
vn -0.481225 0.876597 0.000000
vn -0.022123 0.062367 0.997808
vn -0.028221 0.072087 0.996999
vn -0.027341 0.072323 0.997006
vn -0.021665 0.064592 0.997677
vn 0.072892 -0.997340 0.000000
vn 0.072892 -0.997340 0.000000
vn -0.021665 0.064592 -0.997677
vn -0.027341 0.072323 -0.997007
vn -0.996254 0.086473 0.000000
vn -0.996254 0.086473 0.000000
vn -1.000000 -0.000000 0.000000
vn -1.000000 -0.000000 0.000000
vn 0.004104 -0.104812 0.994484
vn 0.002145 -0.071989 0.997403
vn -0.002399 -0.069788 0.997559
vn 0.000695 -0.106947 0.994264
vn 0.007160 -0.102896 0.994666
vn 0.007159 -0.102347 0.994723
vn 0.007167 -0.087624 0.996128
vn 1.000000 -0.000001 0.000000
vn 1.000000 -0.000001 0.000000
vn 1.000000 -0.000001 0.000000
vn 1.000000 -0.000001 0.000000
vn 0.006407 -0.061576 -0.998082
vn 0.016048 -0.063053 -0.997881
vn 0.015386 -0.064250 -0.997815
vn 0.015217 -0.062829 -0.997908
vn 0.008343 -0.083742 -0.996453
vn -0.002399 -0.069788 -0.997559
vn 0.000695 -0.106947 -0.994264
vn -0.961831 0.273643 0.000000
vn -0.961831 0.273643 0.000000
vn -0.004664 0.016410 0.999855
vn -0.009534 0.017338 0.999804
vn -0.001268 0.007736 -0.999969
vn 0.016133 -0.022531 -0.999616
vn 0.019544 -0.061427 -0.997920
vn -0.009534 0.017338 -0.999804
vn 0.009863 0.025171 -0.999635
vn -0.081342 0.043783 0.995724
vn 0.000916 0.013618 0.999907
vn 0.006510 0.003757 0.999972
vn 0.007200 0.002230 0.999972
vn 0.004661 0.003504 0.999983
vn 0.130391 0.990836 0.035260
vn 0.140540 0.989608 0.030422
vn 0.182685 0.983119 0.010196
vn 0.182685 0.983119 0.010196
vn 0.007182 0.002345 0.999971
vn 0.013900 0.008174 -0.999870
vn 0.024132 -0.137881 -0.990155
vn 0.976259 0.213982 0.033634
vn 0.903205 0.422840 0.073668
vn 0.918735 0.389119 0.067179
vn 0.976259 0.213982 0.033634
vn 0.656126 0.740648 0.144702
vn 0.656316 0.740312 0.145558
vn 0.352491 0.923897 0.148875
vn 0.352491 0.923897 0.148875
vn 0.260065 0.957950 0.121240
vn 0.230782 0.966492 0.112392
vn 0.658424 0.736469 0.155212
vn 0.658424 0.736469 0.155212
vn 0.000000 0.000000 0.000000
vn 0.000000 0.000000 0.000000
vn 0.000000 0.000000 0.000000
vn 0.000000 0.000000 0.000000
s off
g polySurface9 gravestone_base1
usemtl initialShadingGroup
f 1/71/1 2/72/2 4/73/3 3/74/4
f 3/4/5 4/3/6 6/5/7 5/6/8
f 5/75/9 6/76/10 8/77/11 7/78/12
f 7/8/13 8/7/14 2/2/15 1/1/16
f 2/2/17 8/7/18 6/5/19 4/3/20
f 7/8/21 1/1/22 3/4/23 5/6/24
s 1
f 19/79/25 20/80/26 12/81/27 11/82/28
s off
f 11/123/29 12/124/30 14/125/31 13/126/32
s 2
f 13/85/33 14/86/34 17/87/35 18/88/36
s off
f 15/127/37 16/128/38 10/129/39 9/130/40
s 3
f 20/10/41 17/15/42 14/13/43 12/11/44
s 4
f 18/16/45 19/9/46 11/12/47 13/14/48
s 2
f 18/88/36 17/87/35 16/89/49 15/90/50
s 4
f 15/17/51 9/20/52 19/9/46 18/16/45
s 1
f 9/83/53 10/84/54 20/80/26 19/79/25
s 3
f 10/19/55 16/18/56 17/15/42 20/10/41
s 5
f 31/91/57 32/92/58 24/93/59 23/94/60
s off
f 23/131/61 24/132/62 26/133/63 25/134/64
s 6
f 25/97/65 26/98/66 29/99/67 30/100/68
s off
f 27/135/69 28/136/70 22/137/71 21/138/72
s 7
f 32/22/73 29/27/74 26/25/75 24/23/76
s 8
f 30/28/77 31/21/78 23/24/79 25/26/80
s 6
f 30/100/68 29/99/67 28/101/81 27/102/82
s 8
f 27/29/83 21/32/84 31/21/78 30/28/77
s 5
f 21/95/85 22/96/86 32/92/58 31/91/57
s 7
f 22/31/87 28/30/88 29/27/74 32/22/73
s 9
f 35/103/89 36/104/90 53/105/91 54/106/92
s 10
f 34/139/93 33/140/94 41/141/95 42/142/96
s 11
f 39/33/97 61/61/98 56/43/99
s off
f 40/145/100 39/146/101 36/147/102 35/148/103
s 12
f 55/44/104 40/34/105 35/35/106 54/38/107
s 10
f 38/143/108 42/142/96 41/141/95 37/144/109
s 11
f 39/33/97 56/43/99 53/37/110 36/36/111
s 9
f 44/110/112 43/109/113 38/111/114 37/112/115
s 12
f 41/41/116 45/49/117 44/47/118 37/46/119
f 33/40/120 46/50/121 69/69/122 45/49/117 41/41/116
s off
f 33/113/123 34/114/124 47/115/125 46/116/126
s 11
f 48/52/127 68/68/128 47/51/129 34/39/130 42/42/131
f 43/48/132 48/52/127 42/42/131 38/45/133
s 9
f 50/108/134 49/107/135 43/109/113 44/110/112
s 12
f 45/49/117 51/55/136 50/53/137 44/47/118
s 11
f 52/56/138 67/67/139 63/63/140 68/68/128 48/52/127
f 49/54/141 52/56/138 48/52/127 43/48/132
s 9
f 54/106/92 53/105/91 49/107/135 50/108/134
s 12
f 51/55/136 55/44/104 54/38/107 50/53/137
s 11
f 56/43/99 64/64/142 67/67/139 52/56/138
f 53/37/110 56/43/99 52/56/138 49/54/141
s 12
f 57/57/143 40/34/105 55/44/104
f 55/44/104 65/65/144 57/57/143
f 66/66/145 59/59/146 58/58/147
s 16
f 62/149/148 60/150/149 46/151/150 47/152/151
s 12
f 58/58/147 65/65/144 66/66/145
f 66/66/145 65/65/144 55/44/104 51/55/136
f 46/50/121 60/60/152 69/69/122
s 11
f 56/43/99 61/61/98 70/70/153 64/64/142
f 67/67/139 64/64/142 63/63/140
f 68/68/128 63/63/140 62/62/154 47/51/129
s 12
f 69/69/122 60/60/152 59/59/146 66/66/145 51/55/136 45/49/117
s 17
f 40/117/155 57/118/156 61/119/157 39/120/158
f 61/119/157 57/118/156 65/121/159 70/122/160
s 16
f 64/155/161 58/156/162 59/154/163 63/153/164
f 63/153/164 59/154/163 60/150/149 62/149/148
s 17
f 70/122/160 65/121/159 58/156/165 64/155/166
s off
f 64/157/167 58/158/168 72/159/169 71/160/170
