# This file uses centimeters as units for non-parametric coordinates.

mtllib FINAL final broken piece gravestone1.mtl
g default
v 0.286415 0.312182 0.133415
v 0.286415 0.312182 -0.133415
v 0.344150 0.178097 0.151540
v 0.344150 0.178097 -0.151540
v 0.313043 0.257961 0.145522
v 0.313043 0.257961 -0.145522
v -0.530259 0.631418 -0.133415
v -0.530259 0.631418 0.133415
v -0.464326 0.375785 -0.154006
v -0.283768 0.223571 -0.152740
v -0.020016 0.120736 -0.154378
v 0.359551 0.090454 -0.134916
v 0.360996 0.086280 -0.141781
v 0.359551 0.090454 0.152007
v 0.363675 0.090757 0.151858
v -0.316148 0.183594 0.156685
v -0.080362 0.096369 0.155048
v -0.474666 0.332487 0.154769
vt 0.674223 0.722634
vt 0.674223 0.529084
vt 0.710281 0.537135
vt 0.710281 0.714583
vt 0.621111 0.726636
vt 0.621111 0.525082
vt 0.563028 0.726848
vt 0.562827 0.726947
vt 0.562827 0.536137
vt 0.560051 0.531572
vt 0.452149 0.357029
vt 0.274700 0.357029
vt 0.261007 0.187028
vt 0.466349 0.158233
vt 0.261849 0.085802
vt 0.467624 0.059216
vt 0.735852 0.004470
vt 0.913301 0.004470
vt 0.913301 0.547577
vt 0.735852 0.547577
vt 0.919878 0.841205
vt 0.714103 0.801074
vt 0.727046 0.548653
vt 0.917856 0.548653
vt 0.920967 0.998008
vt 0.715193 0.976475
vt 0.113234 0.038636
vt 0.149292 0.056344
vt 0.361591 0.599451
vt 0.162795 0.562480
vt 0.060122 0.017949
vt 0.063778 0.457062
vt 0.005772 0.300259
vt 0.001838 0.007707
vt 0.002040 0.004964
vt 0.367938 0.594696
vt 0.580237 0.051589
vt 0.616295 0.033882
vt 0.537939 0.550849
vt 0.639165 0.430774
vt 0.707553 0.255373
vt 0.669407 0.013195
vt 0.730467 0.001992
vt 0.727691 0.002953
vn 0.920384 0.391015 0.000000
vn 0.920384 0.391015 0.000000
vn 0.897605 0.440802 0.000000
vn 0.897605 0.440802 0.000000
vn 0.364070 0.931371 0.000000
vn 0.364070 0.931371 0.000000
vn 0.364070 0.931371 0.000000
vn 0.364070 0.931371 0.000000
vn 0.020850 0.071103 0.997251
vn 0.030602 0.101337 0.994381
vn 0.030602 0.101337 0.994381
vn 0.027447 0.091555 0.995422
vn 0.012028 0.041677 0.999059
vn 0.007590 0.004089 0.999963
vn 0.007590 0.004089 0.999963
vn 0.007590 0.004089 0.999963
vn 0.010121 0.025514 0.999623
vn 0.931812 0.362941 0.000000
vn 0.931812 0.362941 0.000000
vn 0.037034 0.115802 -0.992582
vn 0.037034 0.115802 -0.992582
vn 0.022074 0.082247 -0.996368
vn 0.034377 0.104191 -0.993963
vn 0.005900 0.044030 -0.999013
vn 0.010791 0.012817 -0.999860
vn 0.008518 -0.014747 -0.999855
vn 0.015888 -0.183629 -0.982867
vn 0.015888 -0.183629 -0.982867
vn -0.188706 -0.977487 -0.094387
vn -0.156919 -0.984059 -0.083695
vn -0.043180 -0.998047 -0.045150
vn -0.043180 -0.998047 -0.045150
vn 0.984861 0.173252 -0.005714
vn 0.984861 0.173252 -0.005714
vn 0.984861 0.173252 -0.005714
vn 0.984861 0.173252 -0.005714
vn 0.984861 0.173252 -0.005714
vn 0.984861 0.173252 -0.005714
vn -0.501615 -0.852079 -0.149477
vn -0.497409 -0.854534 -0.149518
vn -0.855815 -0.508419 -0.095348
vn -0.877270 -0.471930 -0.087631
vn -0.976258 -0.213982 -0.033634
vn -0.976258 -0.213982 -0.033634
s 1
g polySurface8
usemtl initialShadingGroup
f 5/1/1 6/2/2 2/3/3 1/4/4
s off
f 1/17/5 2/18/6 7/19/7 8/20/8
s 2
f 5/27/9 1/28/10 8/29/11 18/30/12
f 16/32/13 17/33/14 14/34/15 15/35/16 3/31/17
f 3/31/17 5/27/9 18/30/12 16/32/13
s 1
f 3/5/18 4/6/19 6/2/2 5/1/1
s 3
f 7/36/20 2/37/21 6/38/22 9/39/23
f 11/41/24 10/40/25 6/38/22 4/42/26
f 13/43/27 12/44/28 11/41/24 4/42/26
s 4
f 17/21/29 11/22/30 12/23/31 14/24/32
s off
f 4/6/33 3/5/34 15/7/35 14/8/36 12/9/37 13/10/38
s 4
f 16/25/39 10/26/40 11/22/30 17/21/29
f 18/14/41 9/13/42 10/15/40 16/16/39
f 8/11/43 7/12/44 9/13/42 18/14/41
s 3
f 6/38/22 10/40/25 9/39/23
